# xmcd CD database file
#
# Track frame offsets:
#	150
#	22247
#	39423
#	59684
#	82448
#	115762
#	131772
#	149500
#	170663
#	194751
#	213895
#	233074
#	262580
#
# Disc length: 3772 seconds
#
# Revision: 2
# Processed by: cddbd v1.4b41PL1 Copyright (c) Steve Scherf et al.
# Submitted via: Feurio! 1.50.2ß - http://www.feurio.com
#
DISCID=c70eba0d
DTITLE=BB and The Stingers - 1st bluesband on Venus
DYEAR=1900
DGENRE=
TTITLE0=Dancing on my grave
TTITLE1=Due for a break
TTITLE2=Make the change
TTITLE3=Love turns it's back on you
TTITLE4=1st bluesband on Venus
TTITLE5=Asshole behind the desk
TTITLE6=Find me that woman
TTITLE7=Helpless
TTITLE8=Don't sell your blood
TTITLE9=Live the life I love
TTITLE10=Both sides of the fence
TTITLE11=Slow burn
TTITLE12=Surfin with Les
EXTD=
EXTT0=
EXTT1=
EXTT2=
EXTT3=
EXTT4=
EXTT5=
EXTT6=
EXTT7=
EXTT8=
EXTT9=
EXTT10=
EXTT11=
EXTT12=
PLAYORDER=
